<?xml version="1.0" encoding="UTF-8"?>
<svg width="216px" height="197px" viewBox="0 0 216 197" version="1.1" xmlns="http://www.w3.org/2000/svg" xmlns:xlink="http://www.w3.org/1999/xlink">
    <!-- Generator: Sketch 51.2 (57519) - http://www.bohemiancoding.com/sketch -->
    <title>pvr-full</title>
    <desc>Created with Sketch.</desc>
    <defs></defs>
    <g id="SB-WEB-DESIGN" stroke="none" stroke-width="1" fill="none" fill-rule="evenodd">
        <g id="Artboard-Copy" transform="translate(-455.000000, -117.000000)" fill="#FDC900" fill-rule="nonzero">
            <g id="pvr-full" transform="translate(455.000000, 117.000000)">
                <g id="Group" transform="translate(0.745754, 170.538534)">
                    <path d="M19.2864851,6.69669621 C18.5721708,5.98238195 17.4114101,5.08948912 16.2506495,4.55375342 C15.0005995,4.01801773 13.571971,3.6608606 12.2326317,3.6608606 C6.87527478,3.6608606 2.85725705,8.03603545 2.85725705,13.3933924 C2.85725705,19.7329315 8.03603545,22.9473457 12.2326317,22.9473457 C13.8398388,22.9473457 15.3577566,22.5008993 16.6078066,21.8758743 C17.9471458,21.2508493 18.8400387,20.3579565 19.2864851,19.9115101 L19.2864851,23.1259242 C16.6970959,25.0009992 14.0184174,25.3581563 12.2326317,25.3581563 C5.26806769,25.3581563 0.178578566,20.0900886 0.178578566,13.3933924 C0.178578566,6.42882836 5.35735697,1.25004996 12.4112103,1.25004996 C13.8398388,1.25004996 16.5185173,1.42862853 19.2864851,3.57157131 L19.2864851,6.69669621 Z" id="Shape"></path>
                    <polygon id="Shape" points="39.9123094 1.51791781 39.9123094 24.8224206 37.3229202 24.8224206 37.3229202 1.51791781"></polygon>
                    <polygon id="Shape" points="58.4844802 24.9117099 58.4844802 0.62502498 76.6994939 19.7329315 76.6994939 1.60720709 79.2888831 1.60720709 79.2888831 25.893892 61.0738694 6.78598549 61.0738694 24.8224206 58.4844802 24.8224206"></polygon>
                    <polygon id="Shape" points="109.290082 4.01801773 99.7361289 4.01801773 99.7361289 10.9825818 108.932925 10.9825818 108.932925 13.3933924 99.7361289 13.3933924 99.7361289 22.41161 109.290082 22.41161 109.290082 24.8224206 97.1467397 24.8224206 97.1467397 1.51791781 109.290082 1.51791781"></polygon>
                    <polygon id="Shape" points="125.897889 24.9117099 129.737328 0.267867848 138.666256 20.0007994 147.773763 0.267867848 151.434624 24.9117099 148.755945 24.9117099 146.523713 8.66106043 138.576967 25.893892 130.71951 8.66106043 128.397989 24.9117099"></polygon>
                    <path d="M180.185773,18.304303 L170.274662,18.304303 L167.506695,24.9117099 L164.649438,24.9117099 L175.364151,0.446446414 L185.810998,24.9117099 L182.95374,24.9117099 L180.185773,18.304303 Z M179.203591,15.8042031 L175.274862,6.42882836 L171.256844,15.8042031 L179.203591,15.8042031 Z" id="Shape"></path>
                    <path d="M211.70489,6.16096051 C211.347732,5.53593553 210.901286,4.82162127 210.36555,4.37517486 C209.919104,4.01801773 209.026211,3.57157131 207.776161,3.57157131 C205.45464,3.57157131 203.847433,5.00019984 203.847433,7.14314263 C203.847433,8.03603545 204.115301,8.57177115 204.740325,9.19679613 C205.45464,9.91111039 206.347533,10.2682675 207.151136,10.6254247 L209.383368,11.6076068 C210.722707,12.2326317 211.972757,12.8576567 212.95494,13.8398388 C214.1157,15.0005995 214.651436,16.429228 214.651436,18.0364351 C214.651436,22.3223207 211.437022,25.1795778 207.240425,25.1795778 C205.722508,25.1795778 203.758143,24.8224206 202.150936,23.3045028 C200.990176,22.1437421 200.275861,20.536535 200.007994,19.1971958 L202.508093,18.4828815 C202.686672,19.7329315 203.222408,20.7151136 203.936722,21.4294279 C204.918904,22.41161 206.079665,22.7687671 207.329715,22.7687671 C210.544129,22.7687671 212.062047,20.536535 212.062047,18.1257244 C212.062047,17.054253 211.70489,16.1613602 210.901286,15.3577566 C210.276261,14.7327317 209.294079,14.2862853 208.133318,13.7505496 L205.990375,12.7683674 C205.097483,12.321921 203.936722,11.8754746 202.865251,10.8040032 C201.883068,9.82182111 201.258043,8.75034972 201.258043,6.96456406 C201.258043,3.39299275 204.026011,0.982182111 207.776161,0.982182111 C209.20479,0.982182111 210.36555,1.25004996 211.526311,2.0536535 C212.508493,2.67867848 213.312097,3.6608606 213.758543,4.64304271 L211.70489,6.16096051 Z" id="Shape"></path>
                </g>
                <polygon id="Shape" points="77.891694 0.7103177 102.446247 108.75035 126.375775 0.7103177 145.215813 0.7103177 102.446247 160.359555 59.587391 0.7103177"></polygon>
                <path d="M58.3373411,26.693499 C49.7655699,18.7467529 42.9795844,17.4074136 33.9613669,17.4074136 L1.1029108,17.4074136 L1.1029108,145.180377 L15.9249318,145.180377 L15.9249318,93.571172 L42.6224273,93.571172 C62.3553588,93.571172 70.0342371,70.355958 70.0342371,54.1945981 C70.0342371,46.1585627 67.2662694,34.9081131 58.3373411,26.693499 Z M33.7827883,79.284887 L15.9249318,79.284887 L15.9249318,32.1401453 L32.4434491,32.1401453 C45.1225272,32.1401453 56.1943983,37.7653701 56.1943983,57.0518552 C56.1943983,73.83824 46.7297343,79.284887 33.7827883,79.284887 Z" id="Shape"></path>
                <path d="M184.770966,93.481883 C203.611004,92.58899 211.111304,69.998801 211.111304,54.1053089 C211.111304,46.0692734 208.343336,34.9081131 199.414408,26.693499 C190.842637,18.7467529 183.967362,17.4074136 175.038434,17.4074136 L142.179978,17.4074136 L142.179978,145.091088 L156.912709,145.091088 L156.912709,93.481883 L168.609605,93.481883 L200.39659,145.091088 L215.754347,145.091088 L184.770966,93.481883 Z M156.912709,79.284887 L156.912709,32.050856 L173.431227,32.050856 C186.110305,32.050856 197.182176,37.6760808 197.182176,56.9625659 C197.182176,73.83824 187.717512,79.195597 174.770566,79.195597 L156.912709,79.195597 L156.912709,79.284887 Z" id="Shape"></path>
            </g>
        </g>
    </g>
</svg>