<?xml version="1.0" encoding="UTF-8"?>
<svg width="97px" height="61px" viewBox="0 0 97 61" version="1.1" xmlns="http://www.w3.org/2000/svg" xmlns:xlink="http://www.w3.org/1999/xlink">
    <!-- Generator: Sketch 51.2 (57519) - http://www.bohemiancoding.com/sketch -->
    <title>Fill 1</title>
    <desc>Created with Sketch.</desc>
    <defs>
        <linearGradient x1="100%" y1="0%" x2="0%" y2="100%" id="linearGradient-1">
            <stop stop-color="#2D94F3" offset="0%"></stop>
            <stop stop-color="#3067DC" offset="100%"></stop>
        </linearGradient>
        <polygon id="path-2" points="37.5810323 0 0 61 60.5679322 61 97 0"></polygon>
        <linearGradient x1="2.04081633%" y1="2.04081633%" x2="100%" y2="100%" id="linearGradient-4">
            <stop stop-color="#FFFFFF" stop-opacity="0.4140625" offset="0%"></stop>
            <stop stop-color="#FFFFFF" offset="100%"></stop>
        </linearGradient>
    </defs>
    <g id="SB-WEB-DESIGN" stroke="none" stroke-width="1" fill="none" fill-rule="evenodd">
        <g id="Contact-page" transform="translate(-150.000000, -968.000000)">
            <g id="Group-4" transform="translate(121.000000, 933.000000)">
                <g id="Group-6" transform="translate(29.000000, 35.000000)">
                    <g id="Fill-1">
                        <polygon id="Mask" fill="url(#linearGradient-1)" points="37.5810323 0 0 61 60.5679322 61 97 0"></polygon>
                        <mask id="mask-3" fill="white">
                            <use xlink:href="#path-2"></use>
                        </mask>
                        <use id="Mask" fill="url(#linearGradient-1)" xlink:href="#path-2"></use>
                        <path d="M43.5923979,29.00852 C38.2523986,29.00852 33.9075204,24.6636418 33.9075204,19.3236425 C33.9075204,13.9824326 38.2523986,9.63876508 43.5923979,9.63876508 C48.9323972,9.63876508 53.2772753,13.9824326 53.2772753,19.3236425 C53.2772753,24.6636418 48.9323972,29.00852 43.5923979,29.00852 M43.5923979,-3 C31.1352243,-3 21,7.13522426 21,19.5923979 C21,24.7217511 22.6827475,29.5593474 25.8702828,33.589467 L43.5923979,55.8718278 L61.3193555,33.5846246 C64.5020483,29.5593474 66.1847958,24.7217511 66.1847958,19.5923979 C66.1847958,7.13522426 56.0495715,-3 43.5923979,-3" fill="url(#linearGradient-4)" mask="url(#mask-3)"></path>
                    </g>
                </g>
            </g>
        </g>
    </g>
</svg>