<?xml version="1.0" encoding="UTF-8"?>
<svg width="97px" height="61px" viewBox="0 0 97 61" version="1.1" xmlns="http://www.w3.org/2000/svg" xmlns:xlink="http://www.w3.org/1999/xlink">
    <!-- Generator: Sketch 51.2 (57519) - http://www.bohemiancoding.com/sketch -->
    <title>Call Us</title>
    <desc>Created with Sketch.</desc>
    <defs>
        <linearGradient x1="100%" y1="0%" x2="0%" y2="100%" id="linearGradient-1">
            <stop stop-color="#2D94F3" offset="0%"></stop>
            <stop stop-color="#3067DC" offset="100%"></stop>
        </linearGradient>
        <polygon id="path-2" points="37.5810323 0 0 61 60.5679322 61 97 0"></polygon>
        <polygon id="path-4" points="59 0 59 59 0 59 0 0"></polygon>
        <linearGradient x1="2.04081633%" y1="2.04081633%" x2="100%" y2="100%" id="linearGradient-6">
            <stop stop-color="#FFFFFF" stop-opacity="0.4140625" offset="0%"></stop>
            <stop stop-color="#FFFFFF" offset="100%"></stop>
        </linearGradient>
    </defs>
    <g id="SB-WEB-DESIGN" stroke="none" stroke-width="1" fill="none" fill-rule="evenodd">
        <g id="Contact-page" transform="translate(-562.000000, -634.000000)">
            <g id="Group-2" transform="translate(562.000000, 634.000000)">
                <g id="Call-Us">
                    <polygon id="Mask" fill="url(#linearGradient-1)" points="37.5810323 0 0 61 60.5679322 61 97 0"></polygon>
                    <mask id="mask-3" fill="white">
                        <use xlink:href="#path-2"></use>
                    </mask>
                    <use id="Mask" fill="url(#linearGradient-1)" xlink:href="#path-2"></use>
                    <g id="Page-1" mask="url(#mask-3)">
                        <g transform="translate(10.000000, -4.000000)">
                            <mask id="mask-5" fill="white">
                                <use xlink:href="#path-4"></use>
                            </mask>
                            <g id="Clip-2" stroke="none" fill="none"></g>
                            <path d="M46.6726875,41.6576536 C45.9608848,43.6673451 43.136375,45.3340983 40.8833125,45.8208493 C39.3419375,46.1491526 37.3284473,46.4108504 30.5509375,43.6009699 C21.881625,40.0093379 16.29875,31.1998832 15.863625,30.6283196 C15.4468223,30.056756 12.3605,25.963623 12.3605,21.7303647 C12.3605,17.4971064 14.5103125,15.4357899 15.376875,14.5509034 C16.0885625,13.8243493 17.264875,13.4924736 18.39325,13.4924736 C18.7583125,13.4924736 19.0863848,13.5109112 19.3813848,13.5257764 C20.2480625,13.5625363 20.6831875,13.6141614 21.25475,14.9822265 C21.9664375,16.6970326 23.6995625,20.9301756 23.9060625,21.3653015 C24.11625,21.8004273 24.3264375,22.3904285 24.0314375,22.9619921 C23.754875,23.5519933 23.5115,23.8138063 23.0762598,24.3153073 C22.64125,24.8168082 22.22825,25.2004242 21.793125,25.738685 C21.394875,26.2069985 20.9448848,26.7084994 21.4463848,27.5750636 C21.9478848,28.4231903 23.6810098,31.2515083 26.232875,33.5230127 C29.5258125,36.4546962 32.1954473,37.391323 33.1505098,37.7895738 C33.8623125,38.0844591 34.7103223,38.0145117 35.230375,37.4612704 C35.8904375,36.7495815 36.705375,35.5695792 37.5350625,34.4080145 C38.1249473,33.5746378 38.8699375,33.4713876 39.6515723,33.7665035 C40.4480723,34.0429513 44.663,36.1263928 45.5294473,36.5578312 C46.396125,36.9930723 46.9676875,37.1994574 47.177875,37.5645206 C47.384375,37.9295838 47.384375,39.6442747 46.6726875,41.6576536 M29.507375,0 L29.492625,0 C13.2270625,0 0,13.2307758 0,29.5000576 C0,35.95308 2.07963477,41.9342167 5.61594727,46.7906637 L1.939625,57.7499351 L13.2786875,54.1251155 C17.943375,57.2153617 23.5078125,59 29.507375,59 C45.7728223,59 59,45.7655367 59,29.5000576 C59,13.2343481 45.7728223,0 29.507375,0" id="Fill-1" stroke="none" fill="url(#linearGradient-6)" fill-rule="evenodd" mask="url(#mask-5)"></path>
                        </g>
                    </g>
                </g>
            </g>
        </g>
    </g>
</svg>